<svg id="track" xmlns="http://www.w3.org/2000/svg" width="100" height="45.219" viewBox="0 0 100 45.219">
  <defs>
  </defs>
  <path id="baseline" class="cls-1" d="M625.625,38.989S600,38.989,600,56.883c0,14,0,28.785,27.955,10.892C657.548,48.832,642.752,81,672.993,81c16.547,0,.248-24.117,14.754-24.117,12.455,0,16.709-17.894-5.436-17.894H625.625Z" transform="translate(-599 -36.781)"/>
  <path id="active_line" data-name="active line" class="cls-2" d="M625.584,38.572S600,38.572,600,56.643c0,14.143,0,29.071,27.91,11C657.457,48.512,642.684,81,672.877,81c16.521,0,.247-24.357,14.73-24.357,12.435,0,16.683-18.071-5.427-18.071h-56.6Z" transform="translate(-599 -36.781)"/>
  <circle id="start" class="cls-3" cx="58.391" cy="2.578" r="1.547"/>
  <path id="arrow" class="cls-4" d="M676.753,64.286h6.978l-3.489,3.929Z" transform="translate(-599 -36.781)"/>
</svg>
